<svg width="800" height="400" xmlns="http://www.w3.org/2000/svg">
  <rect width="100%" height="100%" fill="#f0f4f8"/>
  <rect x="50" y="50" width="700" height="300" rx="15" fill="#e2e8f0" stroke="#cbd5e0" stroke-width="2"/>
  
  <!-- Website mockup -->
  <rect x="150" y="100" width="500" height="200" rx="5" fill="#fff" stroke="#a0aec0" stroke-width="2"/>
  
  <!-- Browser bar -->
  <rect x="150" y="100" width="500" height="30" rx="5" fill="#a0aec0"/>
  <circle cx="170" cy="115" r="5" fill="#f56565"/>
  <circle cx="190" cy="115" r="5" fill="#f6e05e"/>
  <circle cx="210" cy="115" r="5" fill="#48bb78"/>
  
  <!-- Website content -->
  <rect x="180" y="150" width="120" height="120" rx="5" fill="#4299e1" opacity="0.7"/>
  <rect x="320" y="150" width="300" height="20" rx="3" fill="#a0aec0" opacity="0.5"/>
  <rect x="320" y="180" width="250" height="10" rx="3" fill="#a0aec0" opacity="0.5"/>
  <rect x="320" y="200" width="280" height="10" rx="3" fill="#a0aec0" opacity="0.5"/>
  <rect x="320" y="220" width="260" height="10" rx="3" fill="#a0aec0" opacity="0.5"/>
  <rect x="320" y="240" width="200" height="30" rx="5" fill="#4299e1" opacity="0.7"/>
  
  <!-- AI elements -->
  <circle cx="240" cy="210" r="15" fill="#805ad5" opacity="0.8"/>
  <circle cx="210" cy="210" r="10" fill="#805ad5" opacity="0.6"/>
  <circle cx="270" cy="210" r="10" fill="#805ad5" opacity="0.6"/>
  
  <!-- Title -->
  <text x="400" y="80" font-family="Arial" font-size="24" text-anchor="middle" fill="#2d3748">AI-Powered Website</text>
  <text x="400" y="320" font-family="Arial" font-size="18" text-anchor="middle" fill="#4a5568">Building with AI Assistance</text>
</svg>
