<svg width="800" height="400" xmlns="http://www.w3.org/2000/svg">
  <rect width="100%" height="100%" fill="#f0f4f8"/>
  <rect x="50" y="50" width="700" height="300" rx="15" fill="#e2e8f0" stroke="#cbd5e0" stroke-width="2"/>
  
  <!-- Image gallery -->
  <rect x="200" y="100" width="120" height="90" rx="5" fill="#f56565" opacity="0.7"/>
  <rect x="340" y="100" width="120" height="90" rx="5" fill="#ed8936" opacity="0.7"/>
  <rect x="480" y="100" width="120" height="90" rx="5" fill="#ecc94b" opacity="0.7"/>
  <rect x="200" y="210" width="120" height="90" rx="5" fill="#48bb78" opacity="0.7"/>
  <rect x="340" y="210" width="120" height="90" rx="5" fill="#4299e1" opacity="0.7"/>
  <rect x="480" y="210" width="120" height="90" rx="5" fill="#805ad5" opacity="0.7"/>
  
  <!-- Abstract shapes in images -->
  <circle cx="260" cy="145" r="20" fill="white" opacity="0.5"/>
  <path d="M350,120 L380,140 L400,110 L430,150 L450,130" stroke="white" stroke-width="3" fill="none"/>
  <rect x="500" y="120" width="40" height="40" rx="5" fill="white" opacity="0.5"/>
  <polygon points="220,240 260,220 280,260 240,270" fill="white" opacity="0.5"/>
  <circle cx="400" cy="255" r="25" fill="white" opacity="0.5"/>
  <path d="M500,230 C520,250 540,230 560,250" stroke="white" stroke-width="3" fill="none"/>
  
  <!-- Midjourney logo/icon -->
  <circle cx="120" cy="200" r="60" fill="#9f7aea" opacity="0.8"/>
  <text x="120" y="210" font-family="Arial" font-size="16" font-weight="bold" text-anchor="middle" fill="white">Midjourney</text>
  
  <!-- Title -->
  <text x="400" y="80" font-family="Arial" font-size="24" text-anchor="middle" fill="#2d3748">Image Generation</text>
  <text x="400" y="320" font-family="Arial" font-size="18" text-anchor="middle" fill="#4a5568">A Month-Long Experiment</text>
  
  <!-- Connection lines -->
  <path d="M160,180 Q200,150 220,170" stroke="#9f7aea" stroke-width="3" fill="none"/>
</svg>
