<?xml version="1.0" encoding="UTF-8"?>
<svg width="512" height="512" viewBox="0 0 512 512" fill="none" xmlns="http://www.w3.org/2000/svg">
  <!-- Background -->
  <rect width="512" height="512" rx="100" fill="#7C3AED"/>
  
  <!-- Train Tracks -->
  <path d="M90 350 L422 350" stroke="white" stroke-width="15" stroke-linecap="round"/>
  <path d="M90 390 L422 390" stroke="white" stroke-width="15" stroke-linecap="round"/>
  <path d="M120 350 L120 390" stroke="white" stroke-width="8" stroke-linecap="round"/>
  <path d="M170 350 L170 390" stroke="white" stroke-width="8" stroke-linecap="round"/>
  <path d="M220 350 L220 390" stroke="white" stroke-width="8" stroke-linecap="round"/>
  <path d="M270 350 L270 390" stroke="white" stroke-width="8" stroke-linecap="round"/>
  <path d="M320 350 L320 390" stroke="white" stroke-width="8" stroke-linecap="round"/>
  <path d="M370 350 L370 390" stroke="white" stroke-width="8" stroke-linecap="round"/>

  <!-- Train/AI Hybrid -->
  <rect x="150" y="200" width="212" height="150" rx="15" fill="#4F46E5"/>
  <rect x="170" y="180" width="172" height="20" rx="10" fill="#4F46E5"/>
  <circle cx="200" cy="300" r="30" fill="white"/>
  <circle cx="310" cy="300" r="30" fill="white"/>
  
  <!-- AI Circuit Pattern -->
  <circle cx="200" cy="135" r="25" fill="white" opacity="0.9"/>
  <circle cx="310" cy="135" r="25" fill="white" opacity="0.9"/>
  <path d="M200 160 L200 200" stroke="white" stroke-width="8" stroke-linecap="round"/>
  <path d="M310 160 L310 200" stroke="white" stroke-width="8" stroke-linecap="round"/>
  <path d="M200 110 L200 80" stroke="white" stroke-width="8" stroke-linecap="round"/>
  <path d="M310 110 L310 80" stroke="white" stroke-width="8" stroke-linecap="round"/>
  <path d="M145 135 L175 135" stroke="white" stroke-width="8" stroke-linecap="round"/>
  <path d="M335 135 L365 135" stroke="white" stroke-width="8" stroke-linecap="round"/>
  <path d="M175 100 L225 135 L175 170" stroke="white" stroke-width="8" fill="none" stroke-linecap="round" stroke-linejoin="round"/>
  <path d="M335 100 L285 135 L335 170" stroke="white" stroke-width="8" fill="none" stroke-linecap="round" stroke-linejoin="round"/>
</svg>
